<svg version="1.1" id="Layer_1" xmlns="http://www.w3.org/2000/svg" xmlns:xlink="http://www.w3.org/1999/xlink" x="0px" y="0px"
	 width="100%" viewBox="0 0 1800 284" enable-background="new 0 0 1800 284" xml:space="preserve">
<path fill="#014265" opacity="1.000000" stroke="none" 
	d="
M361.000000,1.000000 
	C840.938293,1.000000 1320.876587,1.000000 1800.907471,1.000000 
	C1800.907471,95.592674 1800.907471,190.185471 1800.907471,285.000000 
	C1321.302490,285.000000 841.604858,285.000000 361.390503,284.534698 
	C360.857391,191.039886 360.840302,98.010384 360.832001,4.980879 
	C360.831879,3.653924 360.941559,2.326959 361.000000,1.000000 
M625.165466,237.948578 
	C647.766724,237.948578 670.367981,237.948578 693.175903,237.948578 
	C693.175903,174.199768 693.175903,110.852089 693.175903,47.092255 
	C670.118469,47.092255 647.189758,47.092255 623.626770,47.627953 
	C623.417847,49.083775 623.026917,50.539505 623.026184,51.995430 
	C622.995544,112.275734 622.989746,172.556061 623.052856,232.836319 
	C623.054626,234.527374 623.841003,236.217606 625.165466,237.948578 
M1630.255249,237.940231 
	C1672.150635,237.940231 1714.045898,237.940231 1755.843262,237.940231 
	C1755.843262,217.222458 1755.843262,197.022018 1755.843262,176.413513 
	C1736.735840,176.413513 1717.986328,176.413513 1698.700195,176.413513 
	C1698.700195,133.148758 1698.700195,90.292511 1698.700195,47.116924 
	C1675.227661,47.116924 1652.295898,47.116924 1628.697754,47.618023 
	C1628.465210,49.065166 1628.029907,50.512199 1628.029175,51.959476 
	C1627.995117,112.264908 1627.989014,172.570374 1628.057129,232.875748 
	C1628.059082,234.545563 1628.910156,236.214447 1630.255249,237.940231 
M411.169189,47.293987 
	C410.779633,48.648361 410.050598,50.002419 410.049347,51.357162 
	C409.992889,112.047920 409.986542,172.738754 410.079346,233.429428 
	C410.081665,234.959595 411.259613,236.487961 412.840332,238.002151 
	C434.766052,238.002151 456.691772,238.002151 478.191315,238.002151 
	C478.191315,211.021011 478.191315,184.650696 478.191315,157.905426 
	C479.820831,161.476898 481.026154,164.773636 482.743256,167.777832 
	C495.465881,190.037003 508.343658,212.207626 521.013062,234.496841 
	C522.543884,237.190033 524.205688,238.087311 527.248840,238.071136 
	C551.234314,237.943726 575.220825,238.005295 599.206970,237.985840 
	C600.408447,237.984863 601.609863,237.772552 603.217346,237.620148 
	C582.202820,206.315720 561.583313,175.461990 540.750488,144.752975 
	C538.346497,141.209320 538.202698,138.837219 540.591675,135.156647 
	C558.626831,107.370964 576.396545,79.412971 594.238831,51.502205 
	C595.057434,50.221611 595.778564,48.878723 596.874939,46.999603 
	C572.525391,46.999603 549.211853,47.071487 525.899841,46.917633 
	C522.620544,46.895996 520.924194,47.869583 519.365723,50.791500 
	C505.492462,76.802467 491.435181,102.715279 478.203003,127.228996 
	C478.203003,101.808067 478.203003,74.550400 478.203003,46.983028 
	C456.156494,46.983028 434.022644,46.983028 411.169189,47.293987 
M1246.777466,47.057129 
	C1225.022583,47.057129 1203.267700,47.057129 1181.015625,47.057129 
	C1181.015625,68.678879 1181.015625,89.735634 1181.015625,110.860252 
	C1166.781616,110.860252 1153.052124,110.860252 1138.862793,110.860252 
	C1138.862793,89.497276 1138.862793,68.433891 1138.862793,47.377617 
	C1116.538330,47.377617 1094.678955,47.377617 1072.866211,47.377617 
	C1072.866211,111.013733 1072.866211,174.270859 1072.866211,237.670074 
	C1094.937500,237.670074 1116.810791,237.670074 1139.139404,237.670074 
	C1139.139404,215.609619 1139.139404,193.876434 1139.139404,172.164215 
	C1153.334717,172.164215 1167.070312,172.164215 1181.292480,172.164215 
	C1181.292480,194.217850 1181.292480,215.947464 1181.292480,237.885117 
	C1203.746460,237.885117 1225.709839,237.885117 1248.328003,237.374283 
	C1248.552002,235.924286 1248.971069,234.474396 1248.971924,233.024261 
	C1249.004761,172.730682 1249.010742,112.437057 1248.944214,52.143551 
	C1248.942383,50.466686 1248.114746,48.790726 1246.777466,47.057129 
M1293.809937,125.499939 
	C1293.809937,162.901794 1293.809937,200.303650 1293.809937,237.758850 
	C1337.375977,237.758850 1380.283813,237.758850 1423.313843,237.758850 
	C1423.313843,220.304169 1423.313843,203.093887 1423.313843,185.324051 
	C1403.250854,185.324051 1383.535034,185.324051 1363.654297,185.324051 
	C1363.654297,178.989548 1363.654297,173.217758 1363.654297,166.836029 
	C1381.360718,166.836029 1398.894897,166.836029 1416.328247,166.836029 
	C1416.328247,149.974274 1416.328247,133.724792 1416.328247,117.025543 
	C1398.570435,117.025543 1381.154297,117.025543 1363.900879,117.025543 
	C1363.900879,110.847404 1363.900879,105.132919 1363.900879,99.078445 
	C1383.261841,99.078445 1402.197510,99.078445 1421.397949,99.078445 
	C1421.397949,81.645439 1421.397949,64.571136 1421.397949,47.300533 
	C1378.829834,47.300533 1336.459595,47.300533 1293.809937,47.300533 
	C1293.809937,73.234123 1293.809937,98.867027 1293.809937,125.499939 
M1023.956604,164.528214 
	C1014.436707,173.186127 1003.472961,178.517273 990.472168,179.460251 
	C972.125977,180.790909 954.460571,168.403854 950.218750,151.058304 
	C945.974426,133.702484 954.960022,115.596321 971.818115,108.505371 
	C986.268921,102.426979 999.877563,105.702667 1012.635132,113.653442 
	C1017.484192,116.675415 1021.938293,120.331131 1026.321411,123.515648 
	C1026.321411,114.062210 1026.446655,104.633888 1026.291016,95.210197 
	C1026.073975,82.067642 1025.748047,68.924210 1025.183960,55.793388 
	C1025.112549,54.129818 1023.650391,51.505219 1022.279358,51.070385 
	C999.371765,43.805256 976.104553,41.117241 952.519043,47.423164 
	C907.278137,59.518982 876.677002,102.556129 879.834167,149.436264 
	C882.445496,188.210785 901.129456,216.472427 936.434387,232.689575 
	C963.666260,245.198395 991.914307,242.027954 1020.064331,235.311829 
	C1024.360474,234.286835 1025.382568,232.091400 1025.408936,228.024078 
	C1025.482056,216.713226 1026.089478,205.406860 1026.264893,194.095306 
	C1026.426025,183.705536 1026.299194,173.311310 1026.299194,162.682098 
	C1025.716919,163.117737 1025.095581,163.582504 1023.956604,164.528214 
M760.699219,157.499863 
	C760.699219,184.236130 760.699219,210.972382 760.699219,237.685913 
	C784.123718,237.685913 806.857910,237.685913 830.116699,237.685913 
	C830.116699,194.165741 830.116699,150.957306 830.116699,107.541779 
	C842.886658,108.096756 855.121704,108.628479 867.617798,109.171547 
	C867.617798,88.281143 867.617798,67.881531 867.617798,47.398224 
	C819.236389,47.398224 771.065369,47.398224 722.965027,47.398224 
	C722.965027,68.074028 722.965027,88.350616 722.965027,109.141479 
	C735.552246,108.612999 747.900513,108.094551 760.699219,107.557198 
	C760.699219,124.257523 760.699219,140.378693 760.699219,157.499863 
M1537.065308,105.500008 
	C1537.065308,86.091576 1537.065308,66.683151 1537.065308,47.305817 
	C1513.677612,47.305817 1490.944336,47.305817 1468.208496,47.305817 
	C1468.208496,110.961525 1468.208496,174.309799 1468.208496,237.594849 
	C1510.536499,237.594849 1552.545166,237.594849 1594.459351,237.594849 
	C1594.459351,217.115387 1594.459351,197.043594 1594.459351,176.407776 
	C1575.268677,176.407776 1556.381958,176.407776 1537.065308,176.407776 
	C1537.065308,152.728134 1537.065308,129.614075 1537.065308,105.500008 
z"/>
<path fill="#004165" opacity="1.000000" stroke="none" 
	d="
M3.000000,1.000000 
	C98.687561,1.000000 194.375122,1.000000 290.443909,1.462240 
	C290.845428,85.966232 290.861969,170.007996 290.890564,254.049744 
	C290.894073,264.366486 290.961945,274.683258 291.000000,285.000000 
	C195.312439,285.000000 99.624878,285.000000 3.469361,284.531342 
	C3.000938,189.708450 3.000469,95.354225 3.000000,1.000000 
M240.234802,47.039104 
	C177.169327,47.039104 114.103859,47.039104 51.086304,47.039104 
	C51.086304,111.288300 51.086304,174.986084 51.086304,239.000427 
	C53.176296,239.000427 54.983917,239.000427 56.791538,239.000427 
	C96.599083,239.000427 136.406647,239.016953 176.214172,238.993835 
	C197.864822,238.981262 219.515442,238.901337 241.955978,238.781113 
	C242.253647,237.411514 242.784515,236.045944 242.808212,234.671616 
	C242.905685,229.018539 242.849014,223.362823 242.849014,217.708069 
	C242.849014,162.491119 242.863281,107.274139 242.779449,52.057316 
	C242.776962,50.419743 241.743530,48.783730 240.234802,47.039104 
z"/>
<path fill="#FEFEFE" opacity="1.000000" stroke="none" 
	d="
M1247.673096,237.885117 
	C1225.709839,237.885117 1203.746460,237.885117 1181.292480,237.885117 
	C1181.292480,215.947464 1181.292480,194.217850 1181.292480,172.164215 
	C1167.070312,172.164215 1153.334717,172.164215 1139.139404,172.164215 
	C1139.139404,193.876434 1139.139404,215.609619 1139.139404,237.670074 
	C1116.810791,237.670074 1094.937500,237.670074 1072.866211,237.670074 
	C1072.866211,174.270859 1072.866211,111.013733 1072.866211,47.377617 
	C1094.678955,47.377617 1116.538330,47.377617 1138.862793,47.377617 
	C1138.862793,68.433891 1138.862793,89.497276 1138.862793,110.860252 
	C1153.052124,110.860252 1166.781616,110.860252 1181.015625,110.860252 
	C1181.015625,89.735634 1181.015625,68.678879 1181.015625,47.057129 
	C1203.267700,47.057129 1225.022583,47.057129 1247.252197,47.545204 
	C1247.708984,111.317223 1247.691040,174.601166 1247.673096,237.885117 
z"/>
<path fill="#FEFEFE" opacity="1.000000" stroke="none" 
	d="
M411.888763,46.983028 
	C434.022644,46.983028 456.156494,46.983028 478.203003,46.983028 
	C478.203003,74.550400 478.203003,101.808067 478.203003,127.228996 
	C491.435181,102.715279 505.492462,76.802467 519.365723,50.791500 
	C520.924194,47.869583 522.620544,46.895996 525.899841,46.917633 
	C549.211853,47.071487 572.525391,46.999603 596.874939,46.999603 
	C595.778564,48.878723 595.057434,50.221611 594.238831,51.502205 
	C576.396545,79.412971 558.626831,107.370964 540.591675,135.156647 
	C538.202698,138.837219 538.346497,141.209320 540.750488,144.752975 
	C561.583313,175.461990 582.202820,206.315720 603.217346,237.620148 
	C601.609863,237.772552 600.408447,237.984863 599.206970,237.985840 
	C575.220825,238.005295 551.234314,237.943726 527.248840,238.071136 
	C524.205688,238.087311 522.543884,237.190033 521.013062,234.496841 
	C508.343658,212.207626 495.465881,190.037003 482.743256,167.777832 
	C481.026154,164.773636 479.820831,161.476898 478.191315,157.905426 
	C478.191315,184.650696 478.191315,211.021011 478.191315,238.002151 
	C456.691772,238.002151 434.766052,238.002151 412.224365,237.558853 
	C411.591064,174.721786 411.572205,112.328011 411.570251,49.934238 
	C411.570221,48.950508 411.777985,47.966766 411.888763,46.983028 
z"/>
<path fill="#FEFEFE" opacity="1.000000" stroke="none" 
	d="
M1293.809937,124.999939 
	C1293.809937,98.867027 1293.809937,73.234123 1293.809937,47.300533 
	C1336.459595,47.300533 1378.829834,47.300533 1421.397949,47.300533 
	C1421.397949,64.571136 1421.397949,81.645439 1421.397949,99.078445 
	C1402.197510,99.078445 1383.261841,99.078445 1363.900879,99.078445 
	C1363.900879,105.132919 1363.900879,110.847404 1363.900879,117.025543 
	C1381.154297,117.025543 1398.570435,117.025543 1416.328247,117.025543 
	C1416.328247,133.724792 1416.328247,149.974274 1416.328247,166.836029 
	C1398.894897,166.836029 1381.360718,166.836029 1363.654297,166.836029 
	C1363.654297,173.217758 1363.654297,178.989548 1363.654297,185.324051 
	C1383.535034,185.324051 1403.250854,185.324051 1423.313843,185.324051 
	C1423.313843,203.093887 1423.313843,220.304169 1423.313843,237.758850 
	C1380.283813,237.758850 1337.375977,237.758850 1293.809937,237.758850 
	C1293.809937,200.303650 1293.809937,162.901794 1293.809937,124.999939 
z"/>
<path fill="#FEFEFE" opacity="1.000000" stroke="none" 
	d="
M1024.215454,164.287750 
	C1025.095581,163.582504 1025.716919,163.117737 1026.299194,162.682098 
	C1026.299194,173.311310 1026.426025,183.705536 1026.264893,194.095306 
	C1026.089478,205.406860 1025.482056,216.713226 1025.408936,228.024078 
	C1025.382568,232.091400 1024.360474,234.286835 1020.064331,235.311829 
	C991.914307,242.027954 963.666260,245.198395 936.434387,232.689575 
	C901.129456,216.472427 882.445496,188.210785 879.834167,149.436264 
	C876.677002,102.556129 907.278137,59.518982 952.519043,47.423164 
	C976.104553,41.117241 999.371765,43.805256 1022.279358,51.070385 
	C1023.650391,51.505219 1025.112549,54.129818 1025.183960,55.793388 
	C1025.748047,68.924210 1026.073975,82.067642 1026.291016,95.210197 
	C1026.446655,104.633888 1026.321411,114.062210 1026.321411,123.515648 
	C1021.938293,120.331131 1017.484192,116.675415 1012.635132,113.653442 
	C999.877563,105.702667 986.268921,102.426979 971.818115,108.505371 
	C954.960022,115.596321 945.974426,133.702484 950.218750,151.058304 
	C954.460571,168.403854 972.125977,180.790909 990.472168,179.460251 
	C1003.472961,178.517273 1014.436707,173.186127 1024.215454,164.287750 
z"/>
<path fill="#FEFEFE" opacity="1.000000" stroke="none" 
	d="
M760.699219,156.999847 
	C760.699219,140.378693 760.699219,124.257523 760.699219,107.557198 
	C747.900513,108.094551 735.552246,108.612999 722.965027,109.141479 
	C722.965027,88.350616 722.965027,68.074028 722.965027,47.398224 
	C771.065369,47.398224 819.236389,47.398224 867.617798,47.398224 
	C867.617798,67.881531 867.617798,88.281143 867.617798,109.171547 
	C855.121704,108.628479 842.886658,108.096756 830.116699,107.541779 
	C830.116699,150.957306 830.116699,194.165741 830.116699,237.685913 
	C806.857910,237.685913 784.123718,237.685913 760.699219,237.685913 
	C760.699219,210.972382 760.699219,184.236130 760.699219,156.999847 
z"/>
<path fill="#FDFDFE" opacity="1.000000" stroke="none" 
	d="
M1629.364258,47.116924 
	C1652.295898,47.116924 1675.227661,47.116924 1698.700195,47.116924 
	C1698.700195,90.292511 1698.700195,133.148758 1698.700195,176.413513 
	C1717.986328,176.413513 1736.735840,176.413513 1755.843262,176.413513 
	C1755.843262,197.022018 1755.843262,217.222458 1755.843262,237.940231 
	C1714.045898,237.940231 1672.150635,237.940231 1629.782227,237.452240 
	C1629.327393,173.681824 1629.345825,110.399368 1629.364258,47.116924 
z"/>
<path fill="#FEFEFE" opacity="1.000000" stroke="none" 
	d="
M1537.065308,106.000015 
	C1537.065308,129.614075 1537.065308,152.728134 1537.065308,176.407776 
	C1556.381958,176.407776 1575.268677,176.407776 1594.459351,176.407776 
	C1594.459351,197.043594 1594.459351,217.115387 1594.459351,237.594849 
	C1552.545166,237.594849 1510.536499,237.594849 1468.208496,237.594849 
	C1468.208496,174.309799 1468.208496,110.961525 1468.208496,47.305817 
	C1490.944336,47.305817 1513.677612,47.305817 1537.065308,47.305817 
	C1537.065308,66.683151 1537.065308,86.091576 1537.065308,106.000015 
z"/>
<path fill="#FEFEFE" opacity="1.000000" stroke="none" 
	d="
M624.260986,47.092255 
	C647.189758,47.092255 670.118469,47.092255 693.175903,47.092255 
	C693.175903,110.852089 693.175903,174.199768 693.175903,237.948578 
	C670.367981,237.948578 647.766724,237.948578 624.678101,237.467545 
	C624.214233,173.688431 624.237610,110.390343 624.260986,47.092255 
z"/>
<path fill="#003158" opacity="1.000000" stroke="none" 
	d="
M411.528992,47.138508 
	C411.777985,47.966766 411.570221,48.950508 411.570251,49.934238 
	C411.572205,112.328011 411.591064,174.721786 411.748840,237.566360 
	C411.259613,236.487961 410.081665,234.959595 410.079346,233.429428 
	C409.986542,172.738754 409.992889,112.047920 410.049347,51.357162 
	C410.050598,50.002419 410.779633,48.648361 411.528992,47.138508 
z"/>
<path fill="#002C54" opacity="1.000000" stroke="none" 
	d="
M1248.000488,237.629700 
	C1247.691040,174.601166 1247.708984,111.317223 1247.699463,47.573807 
	C1248.114746,48.790726 1248.942383,50.466686 1248.944214,52.143551 
	C1249.010742,112.437057 1249.004761,172.730682 1248.971924,233.024261 
	C1248.971069,234.474396 1248.552002,235.924286 1248.000488,237.629700 
z"/>
<path fill="#00335A" opacity="1.000000" stroke="none" 
	d="
M1629.031006,47.367474 
	C1629.345825,110.399368 1629.327393,173.681824 1629.337158,237.424011 
	C1628.910156,236.214447 1628.059082,234.545563 1628.057129,232.875748 
	C1627.989014,172.570374 1627.995117,112.264908 1628.029175,51.959476 
	C1628.029907,50.512199 1628.465210,49.065166 1629.031006,47.367474 
z"/>
<path fill="#002C54" opacity="1.000000" stroke="none" 
	d="
M623.943848,47.360104 
	C624.237610,110.390343 624.214233,173.688431 624.226196,237.447357 
	C623.841003,236.217606 623.054626,234.527374 623.052856,232.836319 
	C622.989746,172.556061 622.995544,112.275734 623.026184,51.995430 
	C623.026917,50.539505 623.417847,49.083775 623.943848,47.360104 
z"/>
<path fill="#FFFEFE" opacity="1.000000" stroke="none" 
	d="
M241.166077,238.851791 
	C219.515442,238.901337 197.864822,238.981262 176.214172,238.993835 
	C136.406647,239.016953 96.599083,239.000427 56.791538,239.000427 
	C54.983917,239.000427 53.176296,239.000427 51.086304,239.000427 
	C51.086304,174.986084 51.086304,111.288300 51.086304,47.039104 
	C114.103859,47.039104 177.169327,47.039104 240.527863,47.387207 
	C181.728775,79.485435 122.636635,111.235573 63.081497,143.234482 
	C64.646797,144.112305 65.502922,144.612427 66.376694,145.079544 
	C107.411911,167.016800 148.462311,188.925720 189.478745,210.898026 
	C206.744629,220.147308 223.939133,229.529846 241.166077,238.851791 
z"/>
<path fill="#C60D31" opacity="1.000000" stroke="none" 
	d="
M241.561035,238.816452 
	C223.939133,229.529846 206.744629,220.147308 189.478745,210.898026 
	C148.462311,188.925720 107.411911,167.016800 66.376694,145.079544 
	C65.502922,144.612427 64.646797,144.112305 63.081497,143.234482 
	C122.636635,111.235573 181.728775,79.485435 241.005844,47.441147 
	C241.743530,48.783730 242.776962,50.419743 242.779449,52.057316 
	C242.863281,107.274139 242.849014,162.491119 242.849014,217.708069 
	C242.849014,223.362823 242.905685,229.018539 242.808212,234.671616 
	C242.784515,236.045944 242.253647,237.411514 241.561035,238.816452 
z"/>
</svg>